<svg width="1125" height="1125" viewBox="0 0 1125 1125" fill="none" xmlns="http://www.w3.org/2000/svg">
<path d="M962.084 562.084C962.084 653.103 931.042 741.401 874.084 812.396C817.126 883.391 737.659 932.837 648.805 952.57C559.95 972.303 467.023 961.143 385.368 920.931C303.713 880.72 238.214 813.863 199.686 731.4C161.159 648.937 151.907 555.801 173.459 467.37C195.011 378.939 246.078 300.503 318.227 245.014C390.375 189.524 479.291 160.301 570.291 162.168C661.291 164.036 748.933 196.883 818.744 255.285L562.084 562.084H962.084Z" fill="url(#paint0_linear_8_19)"/>
<path d="M811.261 249.177C882.462 305.877 932.197 385.164 952.253 473.946C972.308 562.728 961.485 655.695 921.571 737.496C881.656 819.296 815.037 885.038 732.715 923.865C650.393 962.691 557.29 972.281 468.782 951.05C380.273 929.819 301.652 879.038 245.901 807.091C190.15 735.144 160.604 646.335 162.141 555.329C163.678 464.323 196.207 376.562 254.355 306.539C312.504 236.516 392.795 188.419 481.97 170.189L562.084 562.084L811.261 249.177Z" fill="url(#paint1_linear_8_19)"/>
<path d="M962.084 562.084C962.084 638.721 940.068 713.745 898.656 778.23C857.244 842.715 798.179 893.946 728.489 925.828C658.798 957.71 581.415 968.9 505.547 958.068C429.68 947.236 358.52 914.838 300.536 864.727C242.552 814.616 200.184 748.903 178.472 675.406C156.76 601.908 156.62 523.721 178.066 450.146C199.513 376.571 241.644 310.705 299.447 260.386C357.25 210.066 428.292 177.411 504.121 166.306L562.084 562.084H962.084Z" fill="url(#paint2_linear_8_19)"/>
<path d="M962.084 562.084C962.084 625.223 947.138 687.465 918.467 743.719C889.797 799.973 848.216 848.641 797.128 885.742C746.04 922.843 686.894 947.323 624.529 957.18C562.165 967.037 498.352 961.99 438.312 942.453C378.272 922.916 323.71 889.443 279.088 844.773C234.466 800.103 201.053 745.505 181.581 685.443C162.109 625.382 157.132 561.564 167.056 499.21C176.981 436.856 201.525 377.737 238.681 326.689L562.084 562.084H962.084Z" fill="url(#paint3_linear_8_19)"/>
<path d="M962.084 562.084C962.084 664.763 922.599 763.51 851.803 837.88C781.007 912.249 684.323 956.547 581.768 961.599C479.214 966.652 378.644 932.074 300.88 865.024C223.116 797.974 174.115 703.587 164.021 601.405L562.084 562.084H962.084Z" fill="url(#paint4_linear_8_19)"/>
<path d="M962.084 562.084C962.084 637.764 940.615 711.891 900.169 775.856C859.724 839.821 801.962 891 733.592 923.45C665.222 955.899 589.049 968.286 513.92 959.174C438.791 950.061 367.789 919.823 309.159 871.969L562.084 562.084H962.084Z" fill="url(#paint5_linear_8_19)"/>
<path d="M962.084 562.084C962.084 657.751 927.797 750.249 865.442 822.802C803.087 895.355 716.794 943.158 622.214 957.539L562.084 562.084H962.084Z" fill="url(#paint6_linear_8_19)"/>
<path d="M958.592 509.343C971.384 605.514 948.787 703.056 895.01 783.805L562.084 562.084L958.592 509.343Z" fill="url(#paint7_linear_8_19)"/>
<rect x="239.084" y="732.084" width="650" height="26" fill="#AD7400" fill-opacity="0.62"/>
<rect x="199.084" y="610.084" width="727" height="26" fill="#AD7400" fill-opacity="0.62"/>
<rect x="199.084" y="427.084" width="727" height="26" fill="#AD7400" fill-opacity="0.62"/>
<rect x="199.084" y="488.084" width="727" height="26" fill="#AD7400" fill-opacity="0.62"/>
<rect x="199.084" y="549.084" width="727" height="26" fill="#AD7400" fill-opacity="0.62"/>
<rect x="214.084" y="366.084" width="675" height="26" fill="#AD7400" fill-opacity="0.62"/>
<rect x="351.084" y="244.084" width="425" height="26" fill="#AD7400" fill-opacity="0.62"/>
<rect x="352.084" y="854.083" width="425" height="26" fill="#AD7400" fill-opacity="0.62"/>
<rect x="255.084" y="305.083" width="585" height="26" fill="#AD7400" fill-opacity="0.62"/>
<rect x="259.084" y="793.084" width="610" height="26" fill="#AD7400" fill-opacity="0.62"/>
<rect x="218.084" y="671.084" width="687" height="26" fill="#AD7400" fill-opacity="0.62"/>
<rect x="669.084" y="912.083" width="727" height="26" transform="rotate(-90 669.084 912.083)" fill="#AD7400" fill-opacity="0.62"/>
<rect x="492.084" y="920.083" width="727" height="26" transform="rotate(-90 492.084 920.083)" fill="#AD7400" fill-opacity="0.62"/>
<rect x="551.084" y="925.083" width="727" height="26" transform="rotate(-90 551.084 925.083)" fill="#AD7400" fill-opacity="0.62"/>
<rect x="433.084" y="938.083" width="727" height="26" transform="rotate(-90 433.084 938.083)" fill="#AD7400" fill-opacity="0.62"/>
<rect x="374.084" y="887.083" width="650" height="26" transform="rotate(-90 374.084 887.083)" fill="#AD7400" fill-opacity="0.62"/>
<rect x="610.084" y="919.083" width="727" height="26" transform="rotate(-90 610.084 919.083)" fill="#AD7400" fill-opacity="0.62"/>
<rect x="728.084" y="880.083" width="650" height="26" transform="rotate(-90 728.084 880.083)" fill="#AD7400" fill-opacity="0.62"/>
<rect x="787.084" y="845.083" width="575" height="26" transform="rotate(-90 787.084 845.083)" fill="#AD7400" fill-opacity="0.62"/>
<rect x="846.084" y="805.083" width="500" height="26" transform="rotate(-90 846.084 805.083)" fill="#AD7400" fill-opacity="0.62"/>
<rect x="315.084" y="845.083" width="575" height="26" transform="rotate(-90 315.084 845.083)" fill="#AD7400" fill-opacity="0.62"/>
<rect x="197.084" y="677.083" width="250" height="26" transform="rotate(-90 197.084 677.083)" fill="#AD7400" fill-opacity="0.62"/>
<rect x="256.084" y="819.083" width="500" height="26" transform="rotate(-90 256.084 819.083)" fill="#AD7400" fill-opacity="0.62"/>
<rect x="905.084" y="697.083" width="250" height="26" transform="rotate(-90 905.084 697.083)" fill="#AD7400" fill-opacity="0.62"/>
<path d="M962.084 562.084C962.084 782.998 782.998 962.084 562.084 962.084C341.17 962.084 162.084 782.998 162.084 562.084C162.084 341.17 341.17 162.084 562.084 162.084C782.998 162.084 962.084 341.17 962.084 562.084ZM202.263 562.084C202.263 760.808 363.361 921.905 562.084 921.905C760.808 921.905 921.905 760.808 921.905 562.084C921.905 363.361 760.808 202.263 562.084 202.263C363.361 202.263 202.263 363.361 202.263 562.084Z" fill="url(#paint8_linear_8_19)"/>
<defs>
<linearGradient id="paint0_linear_8_19" x1="562.084" y1="162.084" x2="562.084" y2="962.084" gradientUnits="userSpaceOnUse">
<stop stop-color="#F3C200"/>
<stop offset="1" stop-color="#8D7100"/>
</linearGradient>
<linearGradient id="paint1_linear_8_19" x1="249.177" y1="312.907" x2="874.991" y2="811.261" gradientUnits="userSpaceOnUse">
<stop stop-color="#96F300"/>
<stop offset="1" stop-color="#1F8301"/>
</linearGradient>
<linearGradient id="paint2_linear_8_19" x1="562.084" y1="162.084" x2="562.084" y2="962.084" gradientUnits="userSpaceOnUse">
<stop stop-color="#00F361"/>
<stop offset="0.644231" stop-color="#008A8D"/>
</linearGradient>
<linearGradient id="paint3_linear_8_19" x1="562.084" y1="162.084" x2="562.084" y2="962.084" gradientUnits="userSpaceOnUse">
<stop stop-color="#3D00F3"/>
<stop offset="1" stop-color="#548D00"/>
</linearGradient>
<linearGradient id="paint4_linear_8_19" x1="562.084" y1="162.084" x2="562.084" y2="962.084" gradientUnits="userSpaceOnUse">
<stop stop-color="#F35500"/>
<stop offset="1" stop-color="#8D0000"/>
</linearGradient>
<linearGradient id="paint5_linear_8_19" x1="306.584" y1="861.084" x2="731.084" y2="651.584" gradientUnits="userSpaceOnUse">
<stop offset="0.259677" stop-color="#BE00F3"/>
<stop offset="1" stop-color="#8D003F"/>
</linearGradient>
<linearGradient id="paint6_linear_8_19" x1="562.084" y1="162.084" x2="562.084" y2="962.084" gradientUnits="userSpaceOnUse">
<stop stop-color="#20F300"/>
<stop offset="1" stop-color="#00608D"/>
</linearGradient>
<linearGradient id="paint7_linear_8_19" x1="562.084" y1="162.084" x2="562.084" y2="962.084" gradientUnits="userSpaceOnUse">
<stop stop-color="#00B6F3"/>
<stop offset="1" stop-color="#8D007A"/>
</linearGradient>
<linearGradient id="paint8_linear_8_19" x1="562.084" y1="162.084" x2="562.084" y2="962.084" gradientUnits="userSpaceOnUse">
<stop stop-color="#AD7400"/>
<stop offset="0.993308" stop-color="#875A00"/>
</linearGradient>
</defs>
</svg>
